<svg width="137" height="147" viewBox="0 0 137 147" fill="none" xmlns="http://www.w3.org/2000/svg">
<path d="M49 129.184L59.7838 145H77.7568L87 129.184M49 129.184V128.673V120H87V129.184M49 129.184H87" stroke="white" stroke-width="3"/>
<path fill-rule="evenodd" clip-rule="evenodd" d="M33 68C33 48.67 48.67 33 68 33C87.33 33 103 48.67 103 68C103 81.5468 96.1421 92.7629 85.1367 98.5H84.5V117.5H51.5V102V100V99C51.3091 99 51.2129 98.9845 51.1755 98.9759C51.1653 98.9692 51.1467 98.9567 51.115 98.9344L51.0976 98.9222C51.0266 98.8721 50.8784 98.7676 50.7005 98.6736C50.4928 98.5639 50.311 98.4265 50.0124 98.1826L49.9291 98.1143C49.651 97.8863 49.2891 97.5895 48.823 97.2836C39.29 91.0275 33 80.2479 33 68ZM47.5 100.017C47.399 99.9425 47.2931 99.868 47.177 99.7918C36.8349 93.0047 30 81.3009 30 68C30 47.0132 47.0132 30 68 30C88.9868 30 106 47.0132 106 68C106 81.8009 99.3694 93.5058 88.5 100.052V119.5V121.5H86.5H49.5H47.5V119.5V100.017ZM51.1564 98.9703C51.1569 98.9702 51.1609 98.9712 51.1676 98.974C51.1594 98.9718 51.156 98.9704 51.1564 98.9703Z" fill="white"/>
<rect x="34.5563" y="99" width="4" height="22" rx="2" transform="rotate(45 34.5563 99)" fill="white"/>
<rect x="22" y="66" width="4" height="22" rx="2" transform="rotate(90 22 66)" fill="white"/>
<rect x="37.3848" y="34.5563" width="4" height="22" rx="2" transform="rotate(135 37.3848 34.5563)" fill="white"/>
<rect x="102.828" y="38.3848" width="4" height="22" rx="2" transform="rotate(-135 102.828 38.3848)" fill="white"/>
<rect x="114.385" y="70.3848" width="4" height="22" rx="2" transform="rotate(-90 114.385 70.3848)" fill="white"/>
<rect x="99" y="101.828" width="4" height="22" rx="2" transform="rotate(-45 99 101.828)" fill="white"/>
<rect x="70" y="22" width="4" height="22" rx="2" transform="rotate(-180 70 22)" fill="white"/>
</svg>
