<svg width="152" height="125" viewBox="0 0 152 125" fill="none" xmlns="http://www.w3.org/2000/svg">
<path fill-rule="evenodd" clip-rule="evenodd" d="M31 44V55.8734C29.4037 56.3748 27.865 57.0059 26.3961 57.7546L18.3131 49.6716L5.23163 62.7531L13.2952 70.8166C12.5382 72.2911 11.8997 73.8364 11.3923 75.4399L2.16371e-06 75.4399L0 93.9399H11.5153C12.0385 95.5192 12.6893 97.0404 13.4555 98.4911L5.34357 106.603L18.425 119.685L26.7076 111.402C28.0821 112.082 29.5162 112.661 31 113.127V124.5H49.5V112.965C51.0189 112.458 52.4838 111.833 53.8838 111.101L53.7016 111.283L62.1869 119.768L75.2684 106.687L66.7831 98.2016L66.6009 98.3838C67.3502 96.9511 67.9871 95.4505 68.5 93.8935V94H80.5V75.5H68.6266C68.1518 73.9883 67.5605 72.5281 66.8633 71.13L75.1564 62.8369L62.075 49.7554L53.915 57.9154C52.4729 57.1591 50.9618 56.5166 49.3935 56H49.5V44H31ZM45.5 55.003V54.9148V48H35V54.9148V58.9803C31.6382 59.6352 28.5079 60.9378 25.7444 62.7531L22.86 59.8753L18.3131 55.3284L10.8885 62.7531L15.4247 67.2893L18.425 69.9859C16.52 72.8121 15.1557 76.0329 14.4803 79.5L10.4249 79.4399H4L4 89.9399H10.492L14.5828 90C15.2886 93.2769 16.6119 96.3242 18.425 99.0141L15.619 101.984L11.0004 106.603L18.425 114.028L23.137 109.316L26 106.413C28.7004 108.142 31.7414 109.385 35 110.02V114.085V120.5H45.5V113.997V109.917C48.7712 109.213 51.8136 107.893 54.5 106.084L57.1754 109.1L62.1869 114.112L69.6115 106.687L64.6 101.675L61.5845 99C63.3927 96.3136 64.7127 93.2712 65.4172 90H69.4969H76.5V79.5H69.5852H65.5197C64.8454 76.0387 63.4845 72.8228 61.5845 70L64.7685 67.568L69.4996 62.8369L62.075 55.4123L57.4167 60.0705L54.3825 62.8369C51.725 61.069 48.7236 59.7771 45.5 59.0828V55.003Z" fill="white"/>
<circle cx="40" cy="84" r="13" stroke="white" stroke-width="4"/>
<path fill-rule="evenodd" clip-rule="evenodd" d="M102 0V11.8734C100.404 12.3748 98.865 13.0059 97.3961 13.7546L89.3131 5.67158L76.2316 18.7531L84.2952 26.8166C83.5382 28.2911 82.8997 29.8364 82.3923 31.4399L71 31.4399L71 49.9399H82.5153C83.0385 51.5192 83.6893 53.0404 84.4555 54.4911L76.3436 62.603L89.425 75.6845L97.7076 67.4019C99.0821 68.0824 100.516 68.6606 102 69.1266V80.5H120.5V68.9647C122.019 68.458 123.484 67.8331 124.884 67.1009L124.702 67.2831L133.187 75.7684L146.268 62.6869L137.783 54.2016L137.601 54.3838C138.35 52.9511 138.987 51.4505 139.5 49.8935V50H151.5V31.5H139.627C139.152 29.9883 138.561 28.5281 137.863 27.13L146.156 18.8369L133.075 5.75543L124.915 13.9154C123.473 13.1591 121.962 12.5166 120.393 12H120.5V0H102ZM116.5 11.003V10.9148V4H106V10.9148V14.9803C102.638 15.6352 99.5079 16.9378 96.7444 18.7531L93.86 15.8753L89.3131 11.3284L81.8885 18.7531L86.4247 23.2893L89.425 25.9859C87.52 28.8121 86.1557 32.0329 85.4803 35.5L81.4249 35.4399H75L75 45.9399H81.492L85.5828 46C86.2886 49.2769 87.6119 52.3242 89.425 55.0141L86.619 57.9844L82.0004 62.603L89.425 70.0276L94.137 65.3157L97 62.4127C99.7004 64.1416 102.741 65.3849 106 66.0197V70.0852V76.5H116.5V69.9969V65.9172C119.771 65.2127 122.814 63.8927 125.5 62.0845L128.175 65.1L133.187 70.1115L140.612 62.6869L135.6 57.6754L132.584 55C134.393 52.3136 135.713 49.2712 136.417 46H140.497H147.5V35.5H140.585H136.52C135.845 32.0387 134.485 28.8228 132.584 26L135.768 23.568L140.5 18.8369L133.075 11.4123L128.417 16.0705L125.382 18.8369C122.725 17.069 119.724 15.7771 116.5 15.0828V11.003Z" fill="white"/>
<circle cx="111" cy="40" r="13" stroke="white" stroke-width="4"/>
</svg>
