<svg width="211" height="173" viewBox="0 0 211 173" fill="none" xmlns="http://www.w3.org/2000/svg">
<path fill-rule="evenodd" clip-rule="evenodd" d="M43.0763 61.1406V77.6394C40.8582 78.336 38.72 79.2131 36.6789 80.2533L25.4471 69.0216L7.26966 87.199L18.4745 98.4038C17.4226 100.453 16.5354 102.6 15.8303 104.828L3.00661e-06 104.828L0 130.535H16.0012C16.7281 132.73 17.6325 134.843 18.6972 136.859L7.42521 148.131L25.6027 166.309L37.1118 154.799C39.0217 155.745 41.0145 156.548 43.0763 157.196V173H68.7831V156.971C70.8938 156.267 72.9293 155.399 74.8746 154.381L74.6215 154.634L86.4123 166.425L104.59 148.248L92.799 136.457L92.5459 136.71C93.587 134.719 94.4721 132.634 95.1847 130.47V130.618H111.859V104.912H95.3606C94.7009 102.811 93.8793 100.782 92.9105 98.8393L104.434 87.3155L86.2568 69.1381L74.918 80.4768C72.9142 79.4259 70.8144 78.5331 68.6351 77.8153H68.7831V61.1406H43.0763ZM63.2249 76.4299V76.3073V66.6988H48.6345V76.3073V81.9566C43.9631 82.8666 39.6133 84.6767 35.7733 87.199L31.7652 83.2002L25.4471 76.8821L15.1302 87.199L21.4335 93.5024L25.6027 97.2495C22.9555 101.177 21.0597 105.652 20.1212 110.47L14.486 110.386H5.55823L5.55823 124.977H14.5792L20.2637 125.06C21.2444 129.614 23.0832 133.848 25.6027 137.586L21.7036 141.713L15.2857 148.131L25.6027 158.448L32.1503 151.9L36.1285 147.867C39.8808 150.269 44.1065 151.997 48.6345 152.879V158.528V167.442H63.2249V158.405V152.736C67.7704 151.757 71.998 149.923 75.7309 147.411L79.4486 151.601L86.4123 158.565L96.7292 148.248L89.7655 141.284L85.5752 137.566C88.0878 133.833 89.922 129.606 90.9009 125.06H96.5701H106.301V110.47H96.6927H91.0434C90.1065 105.66 88.2154 101.192 85.5752 97.2691L89.9996 93.8897L96.5737 87.3155L86.2568 76.9986L79.7839 83.4715L75.5676 87.3155C71.8749 84.859 67.7042 83.0637 63.2249 82.0991V76.4299Z" fill="#9251AC"/>
<circle cx="55.5823" cy="116.723" r="18.0643" stroke="#9251AC" stroke-width="4"/>
<path fill-rule="evenodd" clip-rule="evenodd" d="M141.735 0V16.4988C139.517 17.1954 137.378 18.0725 135.337 19.1128L124.106 7.88099L105.928 26.0585L117.133 37.2633C116.081 39.3121 115.194 41.4594 114.489 43.6876L98.6585 43.6876L98.6584 69.3945H114.66C115.387 71.589 116.291 73.7027 117.356 75.7186L106.084 86.9906L124.261 105.168L135.77 93.6589C137.68 94.6044 139.673 95.4079 141.735 96.0554V111.859H167.442V95.8305C169.552 95.1264 171.588 94.258 173.533 93.2406L173.28 93.4938L185.071 105.285L203.248 87.1071L191.457 75.3163L191.204 75.5694C192.245 73.5787 193.13 71.4934 193.843 69.3299V69.4779H210.518V43.7711H194.019C193.359 41.6704 192.538 39.6414 191.569 37.6987L203.093 26.175L184.915 7.99751L173.576 19.3363C171.573 18.2853 169.473 17.3926 167.294 16.6747H167.442V0H141.735ZM161.883 15.2894V15.1667V5.55823H147.293V15.1667V20.816C142.622 21.726 138.272 23.5361 134.432 26.0585L130.424 22.0596L124.106 15.7415L113.789 26.0585L120.092 32.3618L124.261 36.1089C121.614 40.0361 119.718 44.5116 118.78 49.3293L113.144 49.2459H104.217L104.217 63.8362H113.238L118.922 63.9197C119.903 68.4731 121.742 72.7076 124.261 76.4453L120.362 80.5727L113.944 86.9906L124.261 97.3075L130.809 90.7599L134.787 86.7261C138.539 89.1284 142.765 90.8562 147.293 91.7382V97.3875V106.301H161.883V97.2648V91.5957C166.429 90.6168 170.656 88.7826 174.389 86.27L178.107 90.4603L185.071 97.424L195.388 87.1071L188.424 80.1433L184.234 76.4257C186.746 72.6928 188.58 68.4652 189.559 63.9197H195.228H204.96V49.3293H195.351H189.702C188.765 44.5196 186.874 40.051 184.234 36.1285L188.658 32.7491L195.232 26.175L184.915 15.858L178.442 22.3309L174.226 26.175C170.533 23.7184 166.363 21.9232 161.883 20.9585V15.2894Z" fill="#9251AC"/>
<circle cx="154.241" cy="55.5823" r="18.0643" stroke="#9251AC" stroke-width="4"/>
</svg>
