<svg width="147" height="128" viewBox="0 0 147 128" fill="none" xmlns="http://www.w3.org/2000/svg">
<rect x="3" y="3" width="141" height="104" rx="14" stroke="white" stroke-width="6"/>
<path d="M0.5 83H144.5" stroke="white" stroke-width="6"/>
<rect x="64" y="108" width="20" height="16" stroke="white" stroke-width="4"/>
<rect x="50.25" y="124.25" width="47.5" height="2.5" rx="1.25" stroke="white" stroke-width="2.5"/>
<path d="M39.2549 50.9844L37.668 51.5459L39.2549 52.083L53.1221 57.0635V62.9229L31.9795 53.8164V49.1777L53.1221 40.0957V45.9307L39.2549 50.9844ZM69.04 70.0518H63.7178L77.7803 31.4531H83.1025L69.04 70.0518ZM92.1846 45.833V40.0713L113.986 49.1533V53.8164L92.1846 62.9229V57.1367L106.833 51.9365L108.42 51.4482L106.833 50.9355L92.1846 45.833Z" fill="white"/>
</svg>
