<svg width="199" height="173" viewBox="0 0 199 173" fill="none" xmlns="http://www.w3.org/2000/svg">
<rect x="3" y="3" width="192.68" height="142.672" rx="14" stroke="#9251AC" stroke-width="6"/>
<path d="M0.675781 112.18H195.301" stroke="#9251AC" stroke-width="6"/>
<rect x="85.7969" y="145.266" width="28.4375" height="23.0312" stroke="#9251AC" stroke-width="4"/>
<rect x="67.916" y="167.932" width="64.1992" height="3.37891" rx="1.68945" stroke="#9251AC" stroke-width="3.37891"/>
<path d="M56.5059 66.7812L54.6016 67.4551L56.5059 68.0996L73.1465 74.0762V81.1074L47.7754 70.1797V64.6133L73.1465 53.7148V60.7168L56.5059 66.7812ZM92.248 89.6621H85.8613L102.736 43.3438H109.123L92.248 89.6621ZM120.021 60.5996V53.6855L146.184 64.584V70.1797L120.021 81.1074V74.1641L137.6 67.9238L139.504 67.3379L137.6 66.7227L120.021 60.5996Z" fill="#9251AC"/>
</svg>
