<svg width="261" height="144" viewBox="0 0 261 144" fill="none" xmlns="http://www.w3.org/2000/svg">
<mask id="path-1-inside-1" fill="white">
<path fill-rule="evenodd" clip-rule="evenodd" d="M57.4839 23.4C56.4061 25.569 55.8 28.0137 55.8 30.6C55.8 39.547 63.053 46.8 72 46.8C80.947 46.8 88.2 39.547 88.2 30.6C88.2 28.0137 87.5939 25.569 86.5161 23.4H120.6V57.484C122.769 56.4061 125.214 55.8 127.8 55.8C136.747 55.8 144 63.053 144 72C144 80.947 136.747 88.2 127.8 88.2C125.214 88.2 122.769 87.594 120.6 86.5161V120.6H86.5161C87.5939 118.431 88.2 115.986 88.2 113.4C88.2 104.453 80.947 97.2 72 97.2C63.053 97.2 55.8 104.453 55.8 113.4C55.8 115.986 56.4061 118.431 57.4839 120.6H23.4V86.5161C21.2311 87.594 18.7863 88.2 16.2 88.2C7.25299 88.2 -3.91086e-07 80.947 0 72C3.91086e-07 63.053 7.25299 55.8 16.2 55.8C18.7863 55.8 21.2311 56.4061 23.4 57.484V23.4H57.4839Z"/>
</mask>
<path d="M57.4839 23.4L61.066 25.1802L63.9385 19.4H57.4839V23.4ZM72 46.8V42.8V46.8ZM86.5161 23.4V19.4H80.0615L82.934 25.1802L86.5161 23.4ZM120.6 23.4H124.6V19.4H120.6V23.4ZM120.6 57.484H116.6V63.9385L122.38 61.066L120.6 57.484ZM120.6 86.5161L122.38 82.934L116.6 80.0616V86.5161H120.6ZM120.6 120.6V124.6H124.6V120.6H120.6ZM86.5161 120.6L82.934 118.82L80.0615 124.6H86.5161V120.6ZM57.4839 120.6V124.6H63.9385L61.066 118.82L57.4839 120.6ZM23.4 120.6H19.4V124.6H23.4V120.6ZM23.4 86.5161H27.4V80.0616L21.6199 82.934L23.4 86.5161ZM0 72H-4H0ZM23.4 57.484L21.6199 61.066L27.4 63.9385V57.484H23.4ZM23.4 23.4V19.4H19.4V23.4H23.4ZM59.8 30.6C59.8 28.6451 60.2569 26.8083 61.066 25.1802L53.9019 21.6199C52.5553 24.3296 51.8 27.3823 51.8 30.6H59.8ZM72 42.8C65.2621 42.8 59.8 37.3379 59.8 30.6H51.8C51.8 41.7562 60.8439 50.8 72 50.8V42.8ZM84.2 30.6C84.2 37.3379 78.7379 42.8 72 42.8L72 50.8C83.1562 50.8 92.2 41.7562 92.2 30.6H84.2ZM82.934 25.1802C83.7431 26.8083 84.2 28.6451 84.2 30.6H92.2C92.2 27.3823 91.4447 24.3296 90.0981 21.6199L82.934 25.1802ZM120.6 19.4H86.5161V27.4H120.6V19.4ZM124.6 57.484V23.4H116.6V57.484H124.6ZM122.38 61.066C124.008 60.2569 125.845 59.8 127.8 59.8V51.8C124.582 51.8 121.53 52.5553 118.82 53.9019L122.38 61.066ZM127.8 59.8C134.538 59.8 140 65.2622 140 72H148C148 60.8439 138.956 51.8 127.8 51.8V59.8ZM140 72C140 78.7379 134.538 84.2 127.8 84.2V92.2C138.956 92.2 148 83.1562 148 72H140ZM127.8 84.2C125.845 84.2 124.008 83.7432 122.38 82.934L118.82 90.0982C121.53 91.4447 124.582 92.2 127.8 92.2V84.2ZM124.6 120.6V86.5161H116.6V120.6H124.6ZM86.5161 124.6H120.6V116.6H86.5161V124.6ZM84.2 113.4C84.2 115.355 83.7431 117.192 82.934 118.82L90.0981 122.38C91.4447 119.67 92.2 116.618 92.2 113.4H84.2ZM72 101.2C78.7379 101.2 84.2 106.662 84.2 113.4H92.2C92.2 102.244 83.1562 93.2 72 93.2V101.2ZM59.8 113.4C59.8 106.662 65.2621 101.2 72 101.2V93.2C60.8439 93.2 51.8 102.244 51.8 113.4H59.8ZM61.066 118.82C60.2569 117.192 59.8 115.355 59.8 113.4H51.8C51.8 116.618 52.5553 119.67 53.9019 122.38L61.066 118.82ZM23.4 124.6H57.4839V116.6H23.4V124.6ZM19.4 86.5161V120.6H27.4V86.5161H19.4ZM16.2 92.2C19.4177 92.2 22.4705 91.4447 25.1801 90.0981L21.6199 82.934C19.9917 83.7432 18.1549 84.2 16.2 84.2V92.2ZM-4 72C-4 83.1562 5.04385 92.2 16.2 92.2V84.2C9.46213 84.2 4 78.7379 4 72H-4ZM16.2 51.8C5.04385 51.8 -4 60.8439 -4 72H4C4 65.2622 9.46213 59.8 16.2 59.8V51.8ZM25.1801 53.9019C22.4705 52.5553 19.4177 51.8 16.2 51.8V59.8C18.1549 59.8 19.9917 60.2569 21.6199 61.066L25.1801 53.9019ZM19.4 23.4V57.484H27.4V23.4H19.4ZM57.4839 19.4H23.4V27.4H57.4839V19.4Z" fill="#9251AC" mask="url(#path-1-inside-1)"/>
<mask id="path-3-inside-2" fill="white">
<path fill-rule="evenodd" clip-rule="evenodd" d="M261 57.4839C258.831 56.4061 256.386 55.8 253.8 55.8C244.853 55.8 237.6 63.053 237.6 72C237.6 80.947 244.853 88.2 253.8 88.2C256.386 88.2 258.831 87.5939 261 86.5161L261 120.6L226.916 120.6C227.994 122.769 228.6 125.214 228.6 127.8C228.6 136.747 221.347 144 212.4 144C203.453 144 196.2 136.747 196.2 127.8C196.2 125.214 196.806 122.769 197.884 120.6L163.8 120.6L163.8 86.5161C165.969 87.5939 168.414 88.2 171 88.2C179.947 88.2 187.2 80.947 187.2 72C187.2 63.053 179.947 55.8 171 55.8C168.414 55.8 165.969 56.4061 163.8 57.4839L163.8 23.4L197.884 23.4C196.806 21.2311 196.2 18.7863 196.2 16.2C196.2 7.25298 203.453 -2.90655e-06 212.4 -2.12437e-06C221.347 -1.3422e-06 228.6 7.25299 228.6 16.2C228.6 18.7863 227.994 21.2311 226.916 23.4L261 23.4L261 57.4839Z"/>
</mask>
<path d="M261 57.4839L259.22 61.066L265 63.9385L265 57.4839L261 57.4839ZM237.6 72L241.6 72L237.6 72ZM261 86.5161L265 86.5161L265 80.0615L259.22 82.934L261 86.5161ZM261 120.6L261 124.6L265 124.6L265 120.6L261 120.6ZM226.916 120.6L226.916 116.6L220.462 116.6L223.334 122.38L226.916 120.6ZM197.884 120.6L201.466 122.38L204.338 116.6L197.884 116.6L197.884 120.6ZM163.8 120.6L159.8 120.6L159.8 124.6L163.8 124.6L163.8 120.6ZM163.8 86.5161L165.58 82.934L159.8 80.0615L159.8 86.5161L163.8 86.5161ZM163.8 57.4839L159.8 57.4839L159.8 63.9385L165.58 61.066L163.8 57.4839ZM163.8 23.4L163.8 19.4L159.8 19.4L159.8 23.4L163.8 23.4ZM197.884 23.4L197.884 27.4L204.338 27.4L201.466 21.6199L197.884 23.4ZM212.4 -2.12437e-06L212.4 -4L212.4 -2.12437e-06ZM226.916 23.4L223.334 21.6199L220.462 27.4L226.916 27.4L226.916 23.4ZM261 23.4L265 23.4L265 19.4L261 19.4L261 23.4ZM253.8 59.8C255.755 59.8 257.592 60.2569 259.22 61.066L262.78 53.9019C260.07 52.5553 257.018 51.8 253.8 51.8L253.8 59.8ZM241.6 72C241.6 65.2621 247.062 59.8 253.8 59.8L253.8 51.8C242.644 51.8 233.6 60.8438 233.6 72L241.6 72ZM253.8 84.2C247.062 84.2 241.6 78.7379 241.6 72L233.6 72C233.6 83.1562 242.644 92.2 253.8 92.2L253.8 84.2ZM259.22 82.934C257.592 83.7431 255.755 84.2 253.8 84.2L253.8 92.2C257.018 92.2 260.07 91.4447 262.78 90.0981L259.22 82.934ZM265 120.6L265 86.5161L257 86.5161L257 120.6L265 120.6ZM226.916 124.6L261 124.6L261 116.6L226.916 116.6L226.916 124.6ZM223.334 122.38C224.143 124.008 224.6 125.845 224.6 127.8L232.6 127.8C232.6 124.582 231.845 121.53 230.498 118.82L223.334 122.38ZM224.6 127.8C224.6 134.538 219.138 140 212.4 140L212.4 148C223.556 148 232.6 138.956 232.6 127.8L224.6 127.8ZM212.4 140C205.662 140 200.2 134.538 200.2 127.8L192.2 127.8C192.2 138.956 201.244 148 212.4 148L212.4 140ZM200.2 127.8C200.2 125.845 200.657 124.008 201.466 122.38L194.302 118.82C192.955 121.53 192.2 124.582 192.2 127.8L200.2 127.8ZM163.8 124.6L197.884 124.6L197.884 116.6L163.8 116.6L163.8 124.6ZM159.8 86.5161L159.8 120.6L167.8 120.6L167.8 86.5161L159.8 86.5161ZM171 84.2C169.045 84.2 167.208 83.7431 165.58 82.934L162.02 90.0981C164.73 91.4447 167.782 92.2 171 92.2L171 84.2ZM183.2 72C183.2 78.7379 177.738 84.2 171 84.2L171 92.2C182.156 92.2 191.2 83.1562 191.2 72L183.2 72ZM171 59.8C177.738 59.8 183.2 65.2621 183.2 72L191.2 72C191.2 60.8438 182.156 51.8 171 51.8L171 59.8ZM165.58 61.066C167.208 60.2569 169.045 59.8 171 59.8L171 51.8C167.782 51.8 164.73 52.5553 162.02 53.9019L165.58 61.066ZM159.8 23.4L159.8 57.4839L167.8 57.4839L167.8 23.4L159.8 23.4ZM197.884 19.4L163.8 19.4L163.8 27.4L197.884 27.4L197.884 19.4ZM192.2 16.2C192.2 19.4177 192.955 22.4705 194.302 25.1801L201.466 21.6199C200.657 19.9917 200.2 18.1549 200.2 16.2L192.2 16.2ZM212.4 -4C201.244 -4 192.2 5.04385 192.2 16.2L200.2 16.2C200.2 9.46212 205.662 4 212.4 4L212.4 -4ZM232.6 16.2C232.6 5.04385 223.556 -4 212.4 -4L212.4 4C219.138 4 224.6 9.46213 224.6 16.2L232.6 16.2ZM230.498 25.1801C231.845 22.4705 232.6 19.4177 232.6 16.2L224.6 16.2C224.6 18.1549 224.143 19.9917 223.334 21.6199L230.498 25.1801ZM261 19.4L226.916 19.4L226.916 27.4L261 27.4L261 19.4ZM265 57.4839L265 23.4L257 23.4L257 57.4839L265 57.4839Z" fill="#9251AC" mask="url(#path-3-inside-2)"/>
</svg>
