<svg width="207" height="114" viewBox="0 0 207 114" fill="none" xmlns="http://www.w3.org/2000/svg">
<mask id="path-2-inside-1" fill="white">
<path fill-rule="evenodd" clip-rule="evenodd" d="M45.5081 18.525C44.6548 20.2421 44.175 22.1775 44.175 24.225C44.175 31.3081 49.9169 37.05 57 37.05C64.0831 37.05 69.825 31.3081 69.825 24.225C69.825 22.1775 69.3452 20.2421 68.4919 18.525H95.475V45.5081C97.1921 44.6548 99.1275 44.175 101.175 44.175C108.258 44.175 114 49.917 114 57C114 64.0831 108.258 69.825 101.175 69.825C99.1275 69.825 97.1921 69.3452 95.475 68.4919V95.475H68.4919C69.3452 93.7579 69.825 91.8225 69.825 89.775C69.825 82.6919 64.0831 76.95 57 76.95C49.917 76.95 44.175 82.6919 44.175 89.775C44.175 91.8225 44.6548 93.7579 45.5081 95.475H18.525V68.4919C16.8079 69.3452 14.8725 69.825 12.825 69.825C5.74195 69.825 0 64.0831 0 57C0 49.917 5.74195 44.175 12.825 44.175C14.8725 44.175 16.8079 44.6548 18.525 45.5081V18.525H45.5081Z"/>
</mask>
<path d="M44.175 24.225L48.175 24.225V24.225H44.175ZM45.5081 18.525L49.0902 20.3051L51.9627 14.525H45.5081V18.525ZM57 37.05V33.05V37.05ZM68.4919 18.525V14.525H62.0373L64.9098 20.3051L68.4919 18.525ZM95.475 18.525H99.475V14.525H95.475V18.525ZM95.475 45.5081H91.475V51.9627L97.2551 49.0902L95.475 45.5081ZM95.475 68.4919L97.2551 64.9098L91.475 62.0373V68.4919H95.475ZM95.475 95.475V99.475H99.475V95.475H95.475ZM68.4919 95.475L64.9098 93.6949L62.0373 99.475H68.4919V95.475ZM45.5081 95.475V99.475H51.9626L49.0902 93.6949L45.5081 95.475ZM18.525 95.475H14.525V99.475H18.525V95.475ZM18.525 68.4919H22.525V62.0373L16.7449 64.9098L18.525 68.4919ZM18.525 45.5081L16.7449 49.0902L22.525 51.9627V45.5081H18.525ZM18.525 18.525V14.525H14.525V18.525H18.525ZM48.175 24.225C48.175 22.8089 48.5056 21.4814 49.0902 20.3051L41.9261 16.7449C40.804 19.0027 40.175 21.5461 40.175 24.225H48.175ZM57 33.05C52.1261 33.05 48.175 29.0989 48.175 24.225L40.175 24.225C40.175 33.5172 47.7078 41.05 57 41.05V33.05ZM65.825 24.225C65.825 29.0989 61.8739 33.05 57 33.05V41.05C66.2922 41.05 73.825 33.5172 73.825 24.225H65.825ZM64.9098 20.3051C65.4944 21.4814 65.825 22.8089 65.825 24.225H73.825C73.825 21.5461 73.196 19.0027 72.0739 16.7449L64.9098 20.3051ZM95.475 14.525H68.4919V22.525H95.475V14.525ZM99.475 45.5081V18.525H91.475V45.5081H99.475ZM97.2551 49.0902C98.4314 48.5056 99.7589 48.175 101.175 48.175V40.175C98.4961 40.175 95.9527 40.804 93.6949 41.9261L97.2551 49.0902ZM101.175 48.175C106.049 48.175 110 52.1261 110 57H118C118 47.7078 110.467 40.175 101.175 40.175V48.175ZM110 57C110 61.8739 106.049 65.825 101.175 65.825V73.825C110.467 73.825 118 66.2922 118 57H110ZM101.175 65.825C99.7589 65.825 98.4314 65.4944 97.2551 64.9098L93.6949 72.0739C95.9527 73.196 98.4961 73.825 101.175 73.825V65.825ZM99.475 95.475V68.4919H91.475V95.475H99.475ZM68.4919 99.475H95.475V91.475H68.4919V99.475ZM65.825 89.775C65.825 91.1911 65.4944 92.5186 64.9098 93.6949L72.0739 97.2551C73.196 94.9973 73.825 92.4539 73.825 89.775H65.825ZM57 80.95C61.8739 80.95 65.825 84.9011 65.825 89.775H73.825C73.825 80.4828 66.2922 72.95 57 72.95V80.95ZM48.175 89.775C48.175 84.9011 52.1261 80.95 57 80.95V72.95C47.7078 72.95 40.175 80.4828 40.175 89.775H48.175ZM49.0902 93.6949C48.5056 92.5185 48.175 91.1911 48.175 89.775H40.175C40.175 92.4539 40.804 94.9973 41.9261 97.2551L49.0902 93.6949ZM18.525 99.475H45.5081V91.475H18.525V99.475ZM14.525 68.4919V95.475H22.525V68.4919H14.525ZM12.825 73.825C15.5039 73.825 18.0473 73.196 20.3051 72.0739L16.7449 64.9098C15.5686 65.4944 14.2411 65.825 12.825 65.825V73.825ZM-4 57C-4 66.2922 3.53281 73.825 12.825 73.825V65.825C7.95109 65.825 4 61.8739 4 57H-4ZM12.825 40.175C3.53281 40.175 -4 47.7078 -4 57H4C4 52.1261 7.95109 48.175 12.825 48.175V40.175ZM20.3051 41.9261C18.0473 40.804 15.5039 40.175 12.825 40.175V48.175C14.2411 48.175 15.5686 48.5056 16.7449 49.0902L20.3051 41.9261ZM14.525 18.525V45.5081H22.525V18.525H14.525ZM45.5081 14.525H18.525V22.525H45.5081V14.525Z" fill="white" mask="url(#path-2-inside-1)"/>
<mask id="path-5-inside-2" fill="white">
<path fill-rule="evenodd" clip-rule="evenodd" d="M206.625 45.5081C204.908 44.6548 202.972 44.175 200.925 44.175C193.842 44.175 188.1 49.917 188.1 57C188.1 64.0831 193.842 69.825 200.925 69.825C202.972 69.825 204.908 69.3452 206.625 68.4919L206.625 95.475L179.642 95.475C180.495 97.1921 180.975 99.1275 180.975 101.175C180.975 108.258 175.233 114 168.15 114C161.067 114 155.325 108.258 155.325 101.175C155.325 99.1275 155.805 97.1921 156.658 95.475L129.675 95.475L129.675 68.4919C131.392 69.3452 133.327 69.825 135.375 69.825C142.458 69.825 148.2 64.0831 148.2 57C148.2 49.917 142.458 44.175 135.375 44.175C133.328 44.175 131.392 44.6548 129.675 45.5081L129.675 18.525L156.658 18.525C155.805 16.8079 155.325 14.8725 155.325 12.825C155.325 5.74195 161.067 5.63799e-06 168.15 5.9476e-06C175.233 6.25721e-06 180.975 5.74195 180.975 12.825C180.975 14.8725 180.495 16.8079 179.642 18.525L206.625 18.525L206.625 45.5081Z"/>
</mask>
<path d="M200.925 44.175L200.925 48.175L200.925 48.175L200.925 44.175ZM206.625 45.5081L204.845 49.0902L210.625 51.9627L210.625 45.5081L206.625 45.5081ZM188.1 57L192.1 57L188.1 57ZM206.625 68.4919L210.625 68.4919L210.625 62.0374L204.845 64.9098L206.625 68.4919ZM206.625 95.475L206.625 99.475L210.625 99.475L210.625 95.475L206.625 95.475ZM179.642 95.475L179.642 91.475L173.187 91.475L176.06 97.2551L179.642 95.475ZM156.658 95.475L160.24 97.2551L163.113 91.475L156.658 91.475L156.658 95.475ZM129.675 95.475L125.675 95.475L125.675 99.475L129.675 99.475L129.675 95.475ZM129.675 68.4919L131.455 64.9098L125.675 62.0373L125.675 68.4919L129.675 68.4919ZM129.675 45.5081L125.675 45.5081L125.675 51.9627L131.455 49.0902L129.675 45.5081ZM129.675 18.525L129.675 14.525L125.675 14.525L125.675 18.525L129.675 18.525ZM156.658 18.525L156.658 22.525L163.113 22.525L160.24 16.7449L156.658 18.525ZM179.642 18.525L176.06 16.7449L173.187 22.525L179.642 22.525L179.642 18.525ZM206.625 18.525L210.625 18.525L210.625 14.525L206.625 14.525L206.625 18.525ZM200.925 48.175C202.341 48.175 203.669 48.5056 204.845 49.0902L208.405 41.9261C206.147 40.804 203.604 40.175 200.925 40.175L200.925 48.175ZM192.1 57C192.1 52.1261 196.051 48.175 200.925 48.175L200.925 40.175C191.633 40.175 184.1 47.7078 184.1 57L192.1 57ZM200.925 65.825C196.051 65.825 192.1 61.8739 192.1 57L184.1 57C184.1 66.2922 191.633 73.825 200.925 73.825L200.925 65.825ZM204.845 64.9098C203.669 65.4944 202.341 65.825 200.925 65.825L200.925 73.825C203.604 73.825 206.147 73.196 208.405 72.074L204.845 64.9098ZM210.625 95.475L210.625 68.4919L202.625 68.4919L202.625 95.475L210.625 95.475ZM179.642 99.475L206.625 99.475L206.625 91.475L179.642 91.475L179.642 99.475ZM176.06 97.2551C176.644 98.4315 176.975 99.7589 176.975 101.175L184.975 101.175C184.975 98.4961 184.346 95.9527 183.224 93.6949L176.06 97.2551ZM176.975 101.175C176.975 106.049 173.024 110 168.15 110L168.15 118C177.442 118 184.975 110.467 184.975 101.175L176.975 101.175ZM168.15 110C163.276 110 159.325 106.049 159.325 101.175L151.325 101.175C151.325 110.467 158.858 118 168.15 118L168.15 110ZM159.325 101.175C159.325 99.7589 159.656 98.4314 160.24 97.2551L153.076 93.6949C151.954 95.9527 151.325 98.4961 151.325 101.175L159.325 101.175ZM129.675 99.475L156.658 99.475L156.658 91.475L129.675 91.475L129.675 99.475ZM125.675 68.4919L125.675 95.475L133.675 95.475L133.675 68.4919L125.675 68.4919ZM135.375 65.825C133.959 65.825 132.631 65.4944 131.455 64.9098L127.895 72.0739C130.153 73.196 132.696 73.825 135.375 73.825L135.375 65.825ZM144.2 57C144.2 61.8739 140.249 65.825 135.375 65.825L135.375 73.825C144.667 73.825 152.2 66.2922 152.2 57L144.2 57ZM135.375 48.175C140.249 48.175 144.2 52.1261 144.2 57L152.2 57C152.2 47.7078 144.667 40.175 135.375 40.175L135.375 48.175ZM131.455 49.0902C132.631 48.5056 133.959 48.175 135.375 48.175L135.375 40.175C132.696 40.175 130.153 40.804 127.895 41.9261L131.455 49.0902ZM125.675 18.525L125.675 45.5081L133.675 45.5081L133.675 18.525L125.675 18.525ZM156.658 14.525L129.675 14.525L129.675 22.525L156.658 22.525L156.658 14.525ZM151.325 12.825C151.325 15.5039 151.954 18.0473 153.076 20.3051L160.24 16.7449C159.656 15.5686 159.325 14.2411 159.325 12.825L151.325 12.825ZM168.15 -3.99999C158.858 -3.99999 151.325 3.53281 151.325 12.825L159.325 12.825C159.325 7.95109 163.276 4.00001 168.15 4.00001L168.15 -3.99999ZM184.975 12.825C184.975 3.53282 177.442 -3.99999 168.15 -3.99999L168.15 4.00001C173.024 4.00001 176.975 7.95109 176.975 12.825L184.975 12.825ZM183.224 20.3051C184.346 18.0473 184.975 15.5039 184.975 12.825L176.975 12.825C176.975 14.2411 176.644 15.5686 176.06 16.7449L183.224 20.3051ZM206.625 14.525L179.642 14.525L179.642 22.525L206.625 22.525L206.625 14.525ZM210.625 45.5081L210.625 18.525L202.625 18.525L202.625 45.5081L210.625 45.5081Z" fill="white" mask="url(#path-5-inside-2)"/>
</svg>
